<?xml version="1.0" encoding="UTF-8" standalone="no"?>
<!-- Created with Inkscape (http://www.inkscape.org/) -->

<svg
   xmlns:dc="http://purl.org/dc/elements/1.1/"
   xmlns:cc="http://creativecommons.org/ns#"
   xmlns:rdf="http://www.w3.org/1999/02/22-rdf-syntax-ns#"
   xmlns:svg="http://www.w3.org/2000/svg"
   xmlns="http://www.w3.org/2000/svg"
   xmlns:sodipodi="http://sodipodi.sourceforge.net/DTD/sodipodi-0.dtd"
   xmlns:inkscape="http://www.inkscape.org/namespaces/inkscape"
   id="svg2985"
   version="1.1"
   inkscape:version="0.48.2 r9819"
   width="850.64923"
   height="273.08545"
   xml:space="preserve"
   sodipodi:docname="template.svg"><sodipodi:namedview
     pagecolor="#ffffff"
     bordercolor="#666666"
     borderopacity="1"
     objecttolerance="10"
     gridtolerance="10"
     guidetolerance="10"
     inkscape:pageopacity="0"
     inkscape:pageshadow="2"
     inkscape:window-width="1440"
     inkscape:window-height="856"
     id="namedview2987"
     showgrid="false"
     showguides="true"
     inkscape:guide-bbox="true"
     inkscape:zoom="1.0244069"
     inkscape:cx="536.08025"
     inkscape:cy="147.1855"
     inkscape:window-x="111"
     inkscape:window-y="31"
     inkscape:window-maximized="0"
     inkscape:current-layer="g2993"
     fit-margin-top="0"
     fit-margin-left="0"
     fit-margin-right="0"
     fit-margin-bottom="0"><sodipodi:guide
       id="guide3055"
       position="241.27461,150.60122"
       orientation="1,0" /><sodipodi:guide
       id="guide3057"
       position="430.84668,165.78693"
       orientation="0,1" /><sodipodi:guide
       id="guide3059"
       position="501.94343,141.62785"
       orientation="0,1" /><sodipodi:guide
       id="guide3061"
       position="502.63369,116.08824"
       orientation="0,1" /><sodipodi:guide
       id="guide3063"
       position="127.00778,91.11428"
       orientation="0,1" /><sodipodi:guide
       id="guide3065"
       position="605.27461,128.51291"
       orientation="1,0" /><sodipodi:guide
       orientation="0,1"
       position="124.24675,220.19284"
       id="guide3247" /><sodipodi:guide
       orientation="0,1"
       position="127.00778,53.840256"
       id="guide3249" /></sodipodi:namedview><metadata
     id="metadata2991"><rdf:RDF><cc:Work
         rdf:about=""><dc:format>image/svg+xml</dc:format><dc:type
           rdf:resource="http://purl.org/dc/dcmitype/StillImage" /><dc:title></dc:title></cc:Work></rdf:RDF></metadata><defs
     id="defs2989" /><g
     transform="matrix(1.25,0,0,-1.25,53.274606,219.81086)"
     inkscape:label="oznake na vratihA4bleed"
     inkscape:groupmode="layer"
     id="g2993">
<text
   style="text-align:center;text-anchor:middle"
   y="-70.682594"
   x="150.39999"
   id="text2999"
   transform="scale(1,-1)"><tspan
     y="-70.682594"
     x="150.39999"
     id="tspan3001"
     sodipodi:role="line"
     style="font-size:32px;font-variant:normal;font-weight:500;font-stretch:normal;text-align:center;writing-mode:lr-tb;text-anchor:middle;fill:#231f20;fill-opacity:1;fill-rule:nonzero;stroke:none;font-family:Klavika;-inkscape-font-specification:Klavika">player0</tspan></text>







<text
   style="text-align:center;text-anchor:middle"
   y="-50.250904"
   x="150.40001"
   id="text3003"
   transform="scale(1,-1)"><tspan
     y="-50.250904"
     x="150.40001"
     id="tspan3005"
     sodipodi:role="line"
     style="font-size:17.44910049px;font-variant:normal;font-weight:300;font-stretch:normal;text-align:center;writing-mode:lr-tb;text-anchor:middle;fill:#231f20;fill-opacity:1;fill-rule:nonzero;stroke:none;font-family:Klavika;-inkscape-font-specification:Klavika">title0</tspan></text>












<text
   style="text-align:center;text-anchor:middle;font-family:Klavika;-inkscape-font-specification:Klavika"
   y="-70.682594"
   x="441.60001"
   id="text3027"
   transform="scale(1,-1)"><tspan
     y="-70.682594"
     x="441.60001"
     id="tspan3029"
     sodipodi:role="line"
     style="font-size:32px;font-variant:normal;font-weight:500;font-stretch:normal;text-align:center;writing-mode:lr-tb;text-anchor:middle;fill:#231f20;fill-opacity:1;fill-rule:nonzero;stroke:none;font-family:Klavika;-inkscape-font-specification:Klavika">player1</tspan></text>







<text
   style="text-align:center;text-anchor:middle"
   y="-50.250904"
   x="441.60001"
   id="text3031"
   transform="scale(1,-1)"><tspan
     id="tspan3033"
     sodipodi:role="line"
     y="-50.250904"
     x="441.60001"
     style="font-size:17.44910049px;font-variant:normal;font-weight:300;font-stretch:normal;text-align:center;writing-mode:lr-tb;text-anchor:middle;fill:#231f20;fill-opacity:1;fill-rule:nonzero;stroke:none;font-family:Klavika;-inkscape-font-specification:Klavika">title1</tspan></text>











<flowRoot
   xml:space="preserve"
   id="flowRoot3229"
   style="fill:black;stroke:none;stroke-opacity:1;stroke-width:1px;stroke-linejoin:miter;stroke-linecap:butt;fill-opacity:1;font-family:Klavika;font-style:normal;font-weight:500;font-size:13px;line-height:125%;letter-spacing:0px;word-spacing:0px;-inkscape-font-specification:Klavika Medium;font-stretch:normal;font-variant:normal"><flowRegion
     id="flowRegion3231"><rect
       id="rect3233"
       width="76.618828"
       height="55.911034"
       x="130.45908"
       y="186.11273" /></flowRegion><flowPara
     id="flowPara3235" /></flowRoot><text
   xml:space="preserve"
   style="font-size:10.39999962px;font-style:normal;font-variant:normal;font-weight:500;font-stretch:normal;text-align:center;line-height:125%;letter-spacing:0px;word-spacing:0px;text-anchor:middle;fill:#000000;fill-opacity:1;stroke:none;font-family:Klavika;-inkscape-font-specification:Klavika Medium"
   x="441.60001"
   y="-30.271753"
   id="text3237"
   sodipodi:linespacing="125%"
   transform="scale(1,-1)"><tspan
     sodipodi:role="line"
     id="tspan3239"
     x="441.60001"
     y="-30.271753"
     style="font-weight:normal;-inkscape-font-specification:Klavika">officehours1</tspan></text>



<text
   xml:space="preserve"
   style="font-size:10.39999962px;font-style:normal;font-variant:normal;font-weight:bold;font-stretch:normal;text-align:center;line-height:125%;letter-spacing:0px;word-spacing:0px;text-anchor:middle;fill:#000000;fill-opacity:1;stroke:none;font-family:Klavika;-inkscape-font-specification:Klavika Bold"
   x="150.39999"
   y="-30.271753"
   id="text3237-3"
   sodipodi:linespacing="125%"
   transform="scale(1,-1)"><tspan
     sodipodi:role="line"
     id="tspan3239-6"
     x="150.39999"
     y="-30.271753"
     style="font-weight:normal;-inkscape-font-specification:Klavika">officehours0</tspan></text>
</g><g
     sodipodi:insensitive="true"
     inkscape:groupmode="layer"
     inkscape:label="Printing Marks"
     id="printing-marks"
     transform="translate(53.274606,53.274606)"><g
       inkscape:label="CropMarks"
       id="CropMarks"><path
         style="fill:none;stroke:#000000;stroke-width:0.25"
         id="cropTL1"
         d="M 0,-17.716535 0,-53.149606"
         inkscape:connector-curvature="0" /><path
         style="fill:none;stroke:#000000;stroke-width:0.25"
         id="cropTL2"
         d="M -17.716535,0 -53.149606,0"
         inkscape:connector-curvature="0" /><path
         style="fill:none;stroke:#000000;stroke-width:0.25"
         id="cropTR1"
         d="m 744.1,-17.716535 0,-35.433071"
         inkscape:connector-curvature="0" /><path
         style="fill:none;stroke:#000000;stroke-width:0.25"
         id="cropTR2"
         d="m 761.81654,0 35.43307,0"
         inkscape:connector-curvature="0" /><path
         style="fill:none;stroke:#000000;stroke-width:0.25"
         id="cropBL1"
         d="m 0,184.25279 0,35.43307"
         inkscape:connector-curvature="0" /><path
         style="fill:none;stroke:#000000;stroke-width:0.25"
         id="cropBL2"
         d="m -17.716535,166.53625 -35.433071,0"
         inkscape:connector-curvature="0" /><path
         style="fill:none;stroke:#000000;stroke-width:0.25"
         id="cropBR1"
         d="m 744.1,184.25279 0,35.43307"
         inkscape:connector-curvature="0" /><path
         style="fill:none;stroke:#000000;stroke-width:0.25"
         id="cropBR2"
         d="m 761.81654,166.53625 35.43307,0"
         inkscape:connector-curvature="0" /></g><g
       inkscape:label="RegistrationMarks"
       id="RegistrationMarks"><g
         id="regMarkL"><path
           id="path5782"
           transform="translate(-35.433071,30.118519)"
           style="fill:#000000;fill-opacity:1;stroke:none"
           d="m 0,17.716535 -3.5433071,0 L 14.173228,0 -3.5433071,-17.716535 0,-17.716535 17.716535,0 0,17.716535 z"
           inkscape:connector-curvature="0" /><path
           id="path5784"
           transform="translate(-35.433071,30.118519)"
           style="fill:#00ffff;fill-opacity:1;stroke:none"
           d="m -3.5433071,17.716535 -3.5433071,0 L 10.629921,0 -7.0866142,-17.716535 l 3.5433071,0 L 14.173228,0 -3.5433071,17.716535 z"
           inkscape:connector-curvature="0" /><path
           id="path5786"
           transform="translate(-35.433071,30.118519)"
           style="fill:#ff00ff;fill-opacity:1;stroke:none"
           d="m -7.0866142,17.716535 -3.5433068,0 L 7.0866142,0 -10.629921,-17.716535 l 3.5433068,0 L 10.629921,0 -7.0866142,17.716535 z"
           inkscape:connector-curvature="0" /><path
           id="path5788"
           transform="translate(-35.433071,30.118519)"
           style="fill:#ffff00;fill-opacity:1;stroke:none"
           d="m -10.629921,17.716535 -3.543307,0 L 3.5433071,0 -14.173228,-17.716535 l 3.543307,0 L 7.0866142,0 -10.629921,17.716535 z"
           inkscape:connector-curvature="0" /><path
           id="path5790"
           transform="translate(-35.433071,30.118519)"
           style="fill:#000000;fill-opacity:1;stroke:none"
           d="m -14.173228,17.716535 -3.543307,0 L 0,0 l -17.716535,-17.716535 3.543307,0 L 3.5433071,0 -14.173228,17.716535 z"
           inkscape:connector-curvature="0" /></g><g
         id="regMarkR"><path
           id="path5793"
           transform="matrix(-1,0,0,-1,779.53307,30.118519)"
           style="fill:#000000;fill-opacity:1;stroke:none"
           d="m 0,17.716535 -3.5433071,0 L 14.173228,0 -3.5433071,-17.716535 0,-17.716535 17.716535,0 0,17.716535 z"
           inkscape:connector-curvature="0" /><path
           id="path5795"
           transform="matrix(-1,0,0,-1,779.53307,30.118519)"
           style="fill:#00ffff;fill-opacity:1;stroke:none"
           d="m -3.5433071,17.716535 -3.5433071,0 L 10.629921,0 -7.0866142,-17.716535 l 3.5433071,0 L 14.173228,0 -3.5433071,17.716535 z"
           inkscape:connector-curvature="0" /><path
           id="path5797"
           transform="matrix(-1,0,0,-1,779.53307,30.118519)"
           style="fill:#ff00ff;fill-opacity:1;stroke:none"
           d="m -7.0866142,17.716535 -3.5433068,0 L 7.0866142,0 -10.629921,-17.716535 l 3.5433068,0 L 10.629921,0 -7.0866142,17.716535 z"
           inkscape:connector-curvature="0" /><path
           id="path5799"
           transform="matrix(-1,0,0,-1,779.53307,30.118519)"
           style="fill:#ffff00;fill-opacity:1;stroke:none"
           d="m -10.629921,17.716535 -3.543307,0 L 3.5433071,0 -14.173228,-17.716535 l 3.543307,0 L 7.0866142,0 -10.629921,17.716535 z"
           inkscape:connector-curvature="0" /><path
           id="path5801"
           transform="matrix(-1,0,0,-1,779.53307,30.118519)"
           style="fill:#000000;fill-opacity:1;stroke:none"
           d="m -14.173228,17.716535 -3.543307,0 L 0,0 l -17.716535,-17.716535 3.543307,0 L 3.5433071,0 -14.173228,17.716535 z"
           inkscape:connector-curvature="0" /></g><g
         id="regMarkT"><path
           id="path5804"
           transform="matrix(0,1,-1,0,372.05,-35.433071)"
           style="fill:#000000;fill-opacity:1;stroke:none"
           d="m 0,17.716535 -3.5433071,0 L 14.173228,0 -3.5433071,-17.716535 0,-17.716535 17.716535,0 0,17.716535 z"
           inkscape:connector-curvature="0" /><path
           id="path5806"
           transform="matrix(0,1,-1,0,372.05,-35.433071)"
           style="fill:#00ffff;fill-opacity:1;stroke:none"
           d="m -3.5433071,17.716535 -3.5433071,0 L 10.629921,0 -7.0866142,-17.716535 l 3.5433071,0 L 14.173228,0 -3.5433071,17.716535 z"
           inkscape:connector-curvature="0" /><path
           id="path5808"
           transform="matrix(0,1,-1,0,372.05,-35.433071)"
           style="fill:#ff00ff;fill-opacity:1;stroke:none"
           d="m -7.0866142,17.716535 -3.5433068,0 L 7.0866142,0 -10.629921,-17.716535 l 3.5433068,0 L 10.629921,0 -7.0866142,17.716535 z"
           inkscape:connector-curvature="0" /><path
           id="path5810"
           transform="matrix(0,1,-1,0,372.05,-35.433071)"
           style="fill:#ffff00;fill-opacity:1;stroke:none"
           d="m -10.629921,17.716535 -3.543307,0 L 3.5433071,0 -14.173228,-17.716535 l 3.543307,0 L 7.0866142,0 -10.629921,17.716535 z"
           inkscape:connector-curvature="0" /><path
           id="path5812"
           transform="matrix(0,1,-1,0,372.05,-35.433071)"
           style="fill:#000000;fill-opacity:1;stroke:none"
           d="m -14.173228,17.716535 -3.543307,0 L 0,0 l -17.716535,-17.716535 3.543307,0 L 3.5433071,0 -14.173228,17.716535 z"
           inkscape:connector-curvature="0" /></g><g
         id="regMarkB"><path
           id="path5815"
           transform="matrix(0,-1,1,0,372.05,201.96932)"
           style="fill:#000000;fill-opacity:1;stroke:none"
           d="m 0,17.716535 -3.5433071,0 L 14.173228,0 -3.5433071,-17.716535 0,-17.716535 17.716535,0 0,17.716535 z"
           inkscape:connector-curvature="0" /><path
           id="path5817"
           transform="matrix(0,-1,1,0,372.05,201.96932)"
           style="fill:#00ffff;fill-opacity:1;stroke:none"
           d="m -3.5433071,17.716535 -3.5433071,0 L 10.629921,0 -7.0866142,-17.716535 l 3.5433071,0 L 14.173228,0 -3.5433071,17.716535 z"
           inkscape:connector-curvature="0" /><path
           id="path5819"
           transform="matrix(0,-1,1,0,372.05,201.96932)"
           style="fill:#ff00ff;fill-opacity:1;stroke:none"
           d="m -7.0866142,17.716535 -3.5433068,0 L 7.0866142,0 -10.629921,-17.716535 l 3.5433068,0 L 10.629921,0 -7.0866142,17.716535 z"
           inkscape:connector-curvature="0" /><path
           id="path5821"
           transform="matrix(0,-1,1,0,372.05,201.96932)"
           style="fill:#ffff00;fill-opacity:1;stroke:none"
           d="m -10.629921,17.716535 -3.543307,0 L 3.5433071,0 -14.173228,-17.716535 l 3.543307,0 L 7.0866142,0 -10.629921,17.716535 z"
           inkscape:connector-curvature="0" /><path
           id="path5823"
           transform="matrix(0,-1,1,0,372.05,201.96932)"
           style="fill:#000000;fill-opacity:1;stroke:none"
           d="m -14.173228,17.716535 -3.543307,0 L 0,0 l -17.716535,-17.716535 3.543307,0 L 3.5433071,0 -14.173228,17.716535 z"
           inkscape:connector-curvature="0" /></g></g></g></svg>
